<svg xmlns="http://www.w3.org/2000/svg" width="64" height="64" viewBox="0 0 64 64" fill="none">
  <!-- Background Circle -->
  <circle cx="32" cy="32" r="30" fill="#4F46E5" />
  
  <!-- Chat Bubble -->
  <path d="M48 24C48 19.5817 44.4183 16 40 16H24C19.5817 16 16 19.5817 16 24V32C16 36.4183 19.5817 40 24 40H28L32 44L36 40H40C44.4183 40 48 36.4183 48 32V24Z" fill="white" />
  
  <!-- Sound Waves -->
  <path d="M32 26V34" stroke="#4F46E5" stroke-width="2" stroke-linecap="round" />
  <path d="M28 28V32" stroke="#4F46E5" stroke-width="2" stroke-linecap="round" />
  <path d="M36 28V32" stroke="#4F46E5" stroke-width="2" stroke-linecap="round" />
  <path d="M24 30V30" stroke="#4F46E5" stroke-width="2" stroke-linecap="round" />
  <path d="M40 30V30" stroke="#4F46E5" stroke-width="2" stroke-linecap="round" />
  
  <!-- Microphone -->
  <circle cx="32" cy="48" r="4" fill="white" />
  <rect x="30" y="48" width="4" height="8" rx="2" fill="white" />
</svg>
